Coordinates
version=1
nRows=18
nColumns=19
inDegrees=yes

Units are S.I. units (second, meters, Newtons, ...)
If the header above contains a line with 'inDegrees', this indicates whether rotational values are in degrees (yes) or radians (no).

endheader
time	pelvis_tilt	pelvis_list	pelvis_rotation	pelvis_tx	pelvis_ty	pelvis_tz	hip_flexion_r	hip_adduction_r	hip_rotation_r	knee_angle_r	knee_angle_r_beta	ankle_angle_r	hip_flexion_l	hip_adduction_l	hip_rotation_l	knee_angle_l	knee_angle_l_beta	ankle_angle_l
     16.92666667	     -6.29527765	      9.36862183	      5.46676606	      2.42301344	      0.99432394	      1.05373140	    -14.49335806	    -12.07214547	    -10.30857477	     66.16978633	      1.15488064	    -17.67769483	     30.62796595	     15.17541801	     -1.78331249	      9.25485893	      0.16152776	     -0.56979528
     16.93333333	     -5.55780298	      9.59253344	      6.27554541	      2.42289423	      0.99162038	      1.05289552	    -14.22058346	    -12.34334131	    -11.08001885	     70.32837578	      1.22746171	    -16.78586168	     29.36597057	     15.58319655	     -1.92339367	     10.47741153	      0.18286533	     -0.68067908
     16.94000000	     -5.17973638	      9.67124924	      7.12944007	      2.42265199	      0.98823895	      1.05206159	    -13.40955053	    -12.44029915	    -11.63891585	     74.43268770	      1.29909547	    -15.96980054	     28.66481457	     15.81342442	     -2.06615498	     12.37528386	      0.21598945	     -0.66887686
     16.94666667	     -4.85822931	      9.75303839	      7.97610900	      2.42231671	      0.98456644	      1.05122926	    -12.44194732	    -12.58484194	    -12.15089671	     78.42253192	      1.36873139	    -15.17661971	     28.09184608	     16.00719414	     -2.17876466	     14.68899953	      0.25637141	     -0.52865592
     16.95333333	     -4.41767161	      9.95445154	      8.77184091	      2.42194374	      0.98081810	      1.05044077	    -11.55994341	    -12.93559760	    -12.69238515	     82.24724838	      1.43548529	    -14.40943397	     27.40895381	     16.26160858	     -2.28435188	     17.28773905	      0.30172797	     -0.18461998
     16.96000000	     -4.73987139	      9.73147923	      9.61133771	      2.42116413	      0.97605342	      1.04959525	     -9.52107452	    -12.94122228	    -12.90721290	     86.09621862	      1.50266249	    -13.62782609	     27.79360772	     16.17287583	     -2.22432335	     20.45768136	      0.35705390	      0.46954827
     16.96666667	     -4.96207634	      9.64172091	     10.36202177	      2.42031237	      0.97130288	      1.04880299	     -7.51567463	    -13.20319629	    -13.11029324	     89.76479351	      1.56669120	    -12.82835255	     28.04242495	     16.18864579	     -2.16184062	     23.72712418	      0.41411644	      1.42943119
     16.97333333	     -5.27474102	      9.48662586	     11.07411154	      2.41925171	      0.96642713	      1.04802601	     -5.25872985	    -13.51327191	    -13.24745324	     93.27019080	      1.62787192	    -12.02205019	     28.38791147	     16.17908549	     -1.94679180	     27.09869114	      0.47296138	      2.77785782
     16.98000000	     -5.72524409	      9.25462805	     11.70302171	      2.41794451	      0.96146873	      1.04728804	     -2.64504207	    -13.85742175	    -13.22988951	     96.61282392	      1.68621188	    -11.17485612	     28.86739251	     16.11207135	     -1.69294372	     30.49052881	      0.53216012	      4.38818713
     16.98666667	     -6.12551976	      8.97285025	     12.26113025	      2.41643970	      0.95677674	      1.04662650	      0.08956090	    -14.20777179	    -13.12166195	     99.71242612	      1.74031014	    -10.33843682	     29.17253649	     16.01982293	     -1.27667262	     33.72971017	      0.58869450	      6.35336936
     16.99333333	     -6.44708453	      8.70065516	     12.69443701	      2.41477637	      0.95248576	      1.04604945	      2.91523026	    -14.65144042	    -12.89967645	    102.55009375	      1.78983678	     -9.49656893	     29.19607602	     15.92325155	     -0.75466370	     36.65654906	      0.63977747	      8.57119077
     17.00000000	     -6.99923638	      8.33713389	     13.00566348	      2.41286764	      0.94830027	      1.04561821	      6.26855909	    -15.03996273	    -12.43214463	    105.16112110	      1.83540781	     -8.71731398	     29.28832446	     15.74564102	     -0.20276395	     39.24624323	      0.68497616	     10.92172375
     17.00666667	     -7.37202401	      7.96279659	     13.19060017	      2.41087680	      0.94485048	      1.04530384	      9.60553169	    -15.38690826	    -11.85851062	    107.40125732	      1.87450556	     -7.97589447	     28.91080813	     15.50118531	      0.45040709	     41.37495312	      0.72212916	     13.38426970
     17.01333333	     -7.54712990	      7.63919722	     13.20470857	      2.40880722	      0.94220985	      1.04526718	     12.90023312	    -15.69349298	    -11.13670093	    109.28331938	      1.90735374	     -7.22533902	     28.00170763	     15.18350212	      1.10515160	     42.93502026	      0.74935747	     15.80699255
     17.02000000	     -7.13173051	      7.53025129	     13.21771889	      2.40697776	      0.94098342	      1.04519217	     15.46060096	    -16.14828830	    -10.57476575	    110.62830628	      1.93082819	     -6.50389682	     25.99140251	     14.98721758	      1.99664956	     43.79418356	      0.76435270	     18.19121530
     17.02666667	     -7.62873947	      7.01459195	     12.81285964	      2.40484319	      0.93914706	      1.04573409	     19.57843648	    -15.97392175	     -9.34392071	    111.78727299	      1.95105598	     -5.90621795	     24.94258829	     14.27232491	      2.36901425	     44.35695336	      0.77417488	     20.24165495
     17.03333333	     -7.33936483	      6.68870803	     12.66865394	      2.40324060	      0.93902399	      1.04593163	     22.44607383	    -15.97407633	     -8.71853032	    112.26442259	      1.95938381	     -5.25322966	     22.54285375	     13.72813151	      3.25917717	     44.20058860	      0.77144580	     22.10794753
     17.04000000	     -7.18119987	      6.33289496	     11.92398404	      2.40182484	      0.93932696	      1.04680847	     25.73858217	    -15.54016241	     -7.47555335	    112.39965531	      1.96174406	     -4.70618250	     20.09580720	     12.84241887	      3.37145154	     43.51790663	      0.75953075	     23.54326288
